HIERARCHY
ROOT Hips
{
	OFFSET 0.000000 0.000000 0.000000
	CHANNELS 6 Xposition Yposition Zposition Zrotation Yrotation Xrotation 
	JOINT LHipJoint
	{
		OFFSET 0.000000 0.000000 0.000000
		CHANNELS 3 Zrotation Yrotation Xrotation
		JOINT LeftUpLeg
		{
			OFFSET 1.363060 -1.794630 0.839290
			CHANNELS 3 Zrotation Yrotation Xrotation
			JOINT LeftLeg
			{
				OFFSET 2.448110 -6.726130 0.000000
				CHANNELS 3 Zrotation Yrotation Xrotation
				JOINT LeftFoot
				{
					OFFSET 2.562200 -7.039590 0.000000
					CHANNELS 3 Zrotation Yrotation Xrotation
					JOINT LeftToeBase
					{
						OFFSET 0.157640 -0.433110 2.322550
						CHANNELS 3 Zrotation Yrotation Xrotation
						End Site
						{
							OFFSET 0.000000 0.000000 0.000000
						}
					}
				}
			}
		}
	}
	JOINT RHipJoint
	{
		OFFSET 0.000000 0.000000 0.000000
		CHANNELS 3 Zrotation Yrotation Xrotation
		JOINT RightUpLeg
		{
			OFFSET -1.305520 -1.794630 0.839290
			CHANNELS 3 Zrotation Yrotation Xrotation
			JOINT RightLeg
			{
				OFFSET -2.542530 -6.985550 0.000000
				CHANNELS 3 Zrotation Yrotation Xrotation
				JOINT RightFoot
				{
					OFFSET -2.568260 -7.056230 0.000000
					CHANNELS 3 Zrotation Yrotation Xrotation
					JOINT RightToeBase
					{
						OFFSET -0.164730 -0.452590 2.363150
						CHANNELS 3 Zrotation Yrotation Xrotation
						End Site
						{
							OFFSET 0.000000 0.000000 0.000000
						}
					}
				}
			}
		}
	}
}
MOTION
Frames: 13
Frame Time: 0.008333
5.229855 16.922516 2.032979 147.511115 -85.821029 -128.084637 -8.976211 0.927087 3.834839 -14.319176 -2.455195 -43.464542 -2.805142 0.302797 23.709122 0.709775 2.720134 -5.007358 0.375301 -0.000000 -42.248100 11.313404 -4.482696 1.051465 -1.591891 -5.481432 -2.393808 0.362549 -1.850446 23.603754 0.046945 11.236747 24.361401 5.877500 0.000000 -89.541900
5.028823 16.861063 2.032395 143.797264 -85.963271 -124.746165 -8.859477 0.981773 3.698126 -14.627703 -2.639521 -43.585275 -2.606972 0.554238 26.630781 0.783515 3.078451 -5.358308 0.353500 -0.000000 -39.067000 11.583351 -4.505821 0.974867 -2.249762 -6.091508 -2.197833 0.278831 -1.936063 24.993473 -0.002657 12.197203 25.039217 6.525900 -0.000000 -88.844900
4.830795 16.808299 2.031417 140.580717 -86.032203 -121.892482 -8.737369 1.038456 3.571909 -14.929100 -2.817057 -43.491238 -2.428467 0.748161 29.201523 0.888770 3.560093 -5.992385 0.308000 -0.000000 -36.002100 11.845671 -4.500167 0.893868 -2.903570 -6.655900 -2.133813 0.181354 -2.018317 26.529253 -0.074517 13.017689 25.883966 7.157000 0.000000 -87.546500
4.635549 16.765309 2.030603 138.155042 -86.016224 -119.811231 -8.620339 1.095380 3.459104 -15.222313 -2.982717 -43.179351 -2.281640 0.886079 31.351575 1.020796 4.140426 -6.884640 0.230000 -0.000000 -33.350600 12.086823 -4.467161 0.812149 -3.548730 -7.159620 -2.218925 0.073753 -2.097121 28.207579 -0.169472 13.633472 26.876029 7.732600 -0.000001 -85.650300
4.442714 16.732792 2.030793 136.761852 -85.916027 -118.740793 -8.520744 1.147453 3.359355 -15.499151 -3.122828 -42.661659 -2.170920 0.972746 33.055669 1.173985 4.788464 -7.992725 0.111200 0.000000 -31.294300 12.293052 -4.411935 0.734537 -4.169350 -7.586713 -2.460873 -0.038328 -2.173210 30.013620 -0.286803 13.968214 27.975197 8.195200 -0.000001 -83.223201
4.252039 16.710880 2.032778 136.504917 -85.738929 -118.788634 -8.448189 1.189378 3.269612 -15.748914 -3.221214 -41.953474 -2.094875 1.013827 34.316282 1.342275 5.474612 -9.254455 -0.052300 -0.000000 -29.902300 12.455057 -4.340229 0.664479 -4.746856 -7.925330 -2.854943 -0.149349 -2.247927 31.922367 -0.424754 13.944467 29.127193 8.475000 -0.000000 -80.409400
4.063024 16.699314 2.037264 137.373501 -85.495968 -119.946696 -8.410557 1.217644 3.186525 -15.955493 -3.260932 -41.075918 -2.047849 1.015619 35.158118 1.518781 6.171561 -10.593377 -0.258099 -0.000000 -29.161800 12.566490 -4.257947 0.604920 -5.257210 -8.165156 -3.387382 -0.255176 -2.322309 33.900374 -0.580989 13.488107 30.264477 8.494700 0.000000 -77.429900
3.875356 16.697471 2.044804 139.245558 -85.197480 -122.098995 -8.412637 1.231872 3.106917 -16.103445 -3.227905 -40.052477 -2.022109 0.985116 35.619001 1.695670 6.856404 -11.922710 -0.496100 0.000000 -29.003200 12.624941 -4.169210 0.557139 -5.677504 -8.300569 -4.037734 -0.354083 -2.396853 35.910578 -0.753111 12.541681 31.309874 8.183800 0.000000 -74.536600
3.688714 16.704431 2.055338 141.864970 -84.848612 -124.996361 -8.451135 1.237028 3.028338 -16.190351 -3.118958 -38.899221 -2.010049 0.929418 35.740290 1.865228 7.515563 -13.153087 -0.749101 -0.000000 -29.312500 12.637052 -4.074732 0.519532 -6.001989 -8.339682 -4.779332 -0.446803 -2.471491 37.915624 -0.938771 11.084382 32.177769 7.498800 0.000000 -71.969400
3.502604 16.719151 2.069119 145.056864 -84.464856 -128.459439 -8.530198 1.236542 2.952235 -16.196140 -2.927606 -37.659114 -2.003143 0.857298 35.585512 2.018077 8.127294 -14.210033 -0.996000 0.000000 -29.949400 12.601385 -3.978528 0.494039 -6.197554 -8.281467 -5.595494 -0.535027 -2.544930 39.880118 -1.135340 9.115715 32.776979 6.421100 -0.000000 -69.881900
3.317080 16.740443 2.085121 148.428750 -84.052191 -132.105893 -8.633099 1.240461 2.876575 -16.144817 -2.670453 -36.333510 -1.997001 0.774961 35.195128 2.148784 8.691267 -15.030391 -1.215700 0.000000 -30.754200 12.538324 -3.877249 0.472867 -6.291548 -8.163155 -6.454351 -0.621033 -2.617904 41.773884 -1.338814 6.717018 33.014683 5.002401 0.000000 -68.273000
3.131936 16.767230 2.102939 151.797999 -83.636044 -135.747208 -8.757038 1.252683 2.803399 -16.031684 -2.354903 -34.957075 -1.986983 0.689560 34.630579 2.250949 9.190768 -15.581654 -1.389800 0.000001 -31.590100 12.452637 -3.774500 0.454159 -6.269729 -8.003208 -7.336716 -0.705895 -2.689881 43.563463 -1.544586 3.990179 32.821091 3.329001 -0.000000 -67.171900
2.946953 16.798459 2.122028 155.037060 -83.245102 -139.243502 -8.898479 1.276567 2.739625 -15.855783 -1.997755 -33.575748 -1.970499 0.606902 33.950878 2.321260 9.612583 -15.857217 -1.505900 0.000000 -32.347500 12.348894 -3.674473 0.437920 -6.123204 -7.828219 -8.243101 -0.789712 -2.760315 45.228752 -1.745527 1.088202 32.141492 1.535800 0.000000 -66.344000
